<?xml version="1.0" encoding="iso-8859-1"?>
<!-- Generator: Adobe Illustrator 19.0.0, SVG Export Plug-In . SVG Version: 6.00 Build 0)  -->
<svg version="1.1" id="Capa_1" xmlns="http://www.w3.org/2000/svg" xmlns:xlink="http://www.w3.org/1999/xlink" x="0px" y="0px"
	 viewBox="0 0 470 470" style="enable-background:new 0 0 470 470;" xml:space="preserve">
<g>
	<path d="M462.5,350.946h-3.266v-8.787c0-27.69-21.207-57.816-47.275-67.156l-72.015-25.801
		c-29.398-10.533-57.087-43.678-64.103-75.213c9.398,0.002,24.449,0.006,35.865,0.006l11.173-0.002
		c1.729-0.001,3.144-0.001,4.333-0.07l-0.001,0.062c-0.071-0.001-0.142-0.003-0.181-0.006c0.265,0.019,0.529,0.032,0.799,0.032
		c17.429,0,31.608-14.18,31.608-31.609c0-17.429-14.18-31.608-31.608-31.608c-7.887,0-15.468,2.946-21.345,8.295
		c-0.03,0.027-0.06,0.054-0.089,0.082l-31.887,29.97l0.003-12.824l-0.005-29.51c0-0.135-0.002-0.268-0.007-0.397
		c0.018-0.247,0.028-0.495,0.028-0.747c0-17.429-14.18-31.608-31.608-31.608c-17.43,0-31.609,14.18-31.609,31.608
		c0,7.887,2.946,15.468,8.296,21.345c0.027,0.03,0.055,0.059,0.082,0.088l33.89,36.059l-22.667,7.771
		c-15.781,5.41-42.016,4.307-57.285-2.407l-145.54-63.991c-1.96-0.861-4.196-0.845-6.143,0.047
		c-1.946,0.892-3.419,2.573-4.047,4.621c-5.764,18.809-10.453,49.435-10.453,68.271v46.127c-1.969,0.015-3.854,0.801-5.248,2.194
		C0.79,227.193,0,229.101,0,231.09v30c0,0.22,0.01,0.44,0.029,0.659l0.009,0.105c0,0.004,11.225,127.252,11.225,127.252
		c0.341,3.872,3.584,6.841,7.471,6.841h127.761c4.143,0,7.5-3.358,7.5-7.5v-90.217l51.778,55.745
		c22.226,23.928,63.613,41.972,96.271,41.972H462.5c4.143,0,7.5-3.358,7.5-7.5v-30C470,354.304,466.643,350.946,462.5,350.946z
		 M406.9,289.125c20.237,7.25,37.334,31.538,37.334,53.035v8.787h-142.19c-20.416,0-49.404-12.638-63.3-27.598l-11.944-12.858h63.34
		c20.678,0,37.5-15.767,37.5-35.146v-15.016c2.396,1.114,4.812,2.124,7.245,2.996L406.9,289.125z M312.641,251.68v23.664
		c0,1.755-0.253,3.458-0.727,5.083c-17.258-9.08-33.724-23.019-46.932-39.86c-13.418-17.111-23.111-36.75-27.733-55.957
		l23.766-8.147C267.146,205.144,287.58,234.325,312.641,251.68z M316.622,130.146c3.104-2.807,7.082-4.352,11.208-4.352
		c9.158,0,16.608,7.451,16.608,16.608c0,9.103-7.36,16.519-16.442,16.608c-0.17-0.011-0.34-0.019-0.513-0.022
		c-0.045-0.001-0.091-0.001-0.136-0.001c-0.052,0-0.103,0-0.153,0.001c-0.41,0.003-3.053,0.007-15.487,0.007
		c-7.877,0-17.487-0.002-25.776-0.004L316.622,130.146z M226.312,105.662c0-9.158,7.451-16.608,16.609-16.608
		c9.103,0,16.519,7.361,16.607,16.443c-0.011,0.17-0.02,0.341-0.022,0.514c-0.002,0.096-0.001,0.192,0.001,0.288
		c0.01,1.386,0.008,22.289,0.003,41.263l-28.846-30.692C227.856,113.766,226.312,109.788,226.312,105.662z M30.005,121.756
		l67.604,29.724v49.61c0,4.142,3.357,7.5,7.5,7.5s7.5-3.358,7.5-7.5v-43.015l54.981,24.174c14.949,6.573,36.937,8.71,55.09,5.966
		c5.128,21.415,15.57,42.571,30.499,61.608c14.04,17.902,30.864,32.406,49.112,42.464c-3.507,2.023-7.676,3.203-12.15,3.203h-77.273
		l-38.896-41.875c-15.376-16.556-46.268-30.024-68.863-30.024l-82.664,0v-46.124C22.444,162.661,25.729,139.102,30.005,121.756z
		 M455,380.946H302.044c-28.929,0-65.592-15.984-85.28-37.181l-64.76-69.721c-9.792-10.53-32.562-20.454-46.896-20.454L67.5,253.589
		c-4.142,0-7.5,3.358-7.5,7.5s3.357,7.5,7.5,7.5l37.608,0.001c9.316,0,25.841,6.86,33.887,13.741v98.615H25.602l-9.911-112.357H37.5
		c4.143,0,7.5-3.358,7.5-7.5s-3.357-7.5-7.5-7.5H15v-15l90.108,0c18.346,0,45.389,11.791,57.873,25.232l64.772,69.734
		c16.87,18.162,49.503,32.389,74.29,32.389H455V380.946z"/>
</g>
<g>
</g>
<g>
</g>
<g>
</g>
<g>
</g>
<g>
</g>
<g>
</g>
<g>
</g>
<g>
</g>
<g>
</g>
<g>
</g>
<g>
</g>
<g>
</g>
<g>
</g>
<g>
</g>
<g>
</g>
</svg>
